<svg width="255" height="135" viewBox="0 0 255 135" fill="none" xmlns="http://www.w3.org/2000/svg">
<rect x="0.5" y="0.5" width="254" height="134" stroke="#C4C4C4"/>
<g clip-path="url(#clip0_2_576)">
<path d="M91.5744 82.6355V63.2689H89.116V71.6022H80.6919V63.2689H78.2335V82.6355H80.6919V73.8689H89.1488V82.6355H91.5744ZM106.194 72.7689C106.194 69.7355 104.883 68.1689 100.884 68.1689C99.3757 68.1689 97.6057 68.4022 96.3273 68.8022L96.5568 70.7689C97.6713 70.5356 99.4085 70.3022 100.72 70.3022C102.981 70.3022 103.735 70.9355 103.735 72.7022V74.9022H100.064C97.2451 74.9022 95.8029 75.9689 95.8029 78.9022C95.8029 81.4022 96.9173 82.9689 99.5069 82.9689C101.179 82.9689 102.785 82.5022 104.03 81.6355L104.194 82.7022H106.226L106.194 72.7689ZM103.768 79.7022C102.686 80.4022 101.375 80.8689 100.162 80.8689C98.4579 80.8689 98.1957 80.2689 98.1957 78.8355C98.1957 77.4022 98.7529 76.9355 100.228 76.9355H103.768V79.7022ZM121.206 71.7689C121.206 69.6022 120.42 68.1689 118.191 68.1689C116.585 68.1689 114.356 68.8689 112.815 69.6689V62.3689L110.422 62.7022V82.6689H112.815V72.0022C114.323 71.2355 116.453 70.5355 117.47 70.5355C118.355 70.5355 118.814 70.9022 118.814 71.8355V82.6689H121.206V71.7689ZM136.448 71.7689C136.448 69.6022 135.662 68.1689 133.433 68.1689C131.794 68.1689 129.368 68.9022 127.828 69.7022L127.598 68.5022H125.631V82.6689H128.024V71.9689C129.532 71.2022 131.663 70.5355 132.679 70.5355C133.564 70.5355 134.023 70.9022 134.023 71.8355V82.6689H136.448V71.7689ZM142.578 77.7022V76.5355H150.871V73.5689C150.871 70.6355 149.757 68.2022 145.626 68.2022C141.496 68.2022 140.185 70.5689 140.185 73.5022V77.7355C140.185 80.9355 141.595 82.9355 145.692 82.9355C147.429 82.9355 149.298 82.6355 150.609 82.1355L150.314 80.1689C148.773 80.5689 147.298 80.8355 145.922 80.8355C143.201 80.8355 142.578 79.9355 142.578 77.7022ZM142.578 73.3022C142.578 71.3022 143.365 70.2355 145.626 70.2355C147.888 70.2355 148.544 71.3689 148.544 73.3022V74.4689H142.578V73.3022ZM173.882 71.7689C173.882 69.6022 173.095 68.1689 170.866 68.1689C169.129 68.1689 166.769 68.8689 165.097 69.7022C164.704 68.7355 163.884 68.1689 162.442 68.1689C160.803 68.1689 158.377 68.9022 156.837 69.7022L156.607 68.5022H154.641V82.6689H157.033V71.9689C158.541 71.2022 160.672 70.5355 161.688 70.5355C162.573 70.5355 163.032 70.9022 163.032 71.8355V82.6689H165.425V71.9689C166.933 71.2022 168.932 70.5355 170.079 70.5355C170.964 70.5355 171.423 70.9022 171.423 71.8355V82.6689H173.882V71.7689ZM178.176 68.5022V79.3689C178.176 81.5355 178.962 82.9689 181.191 82.9689C182.83 82.9689 185.256 82.2355 186.797 81.4355L187.026 82.6355H188.993V68.4689H186.6V79.1689C185.092 79.9355 182.961 80.6022 181.945 80.6022C181.06 80.6022 180.601 80.2355 180.601 79.3022V68.4689L178.176 68.5022ZM180.11 66.3355H182.339V63.9022H180.11V66.3355ZM185.059 66.3355H187.288V63.9022H185.059V66.3355ZM204.366 71.7689C204.366 69.6022 203.579 68.1689 201.35 68.1689C199.744 68.1689 197.515 68.8689 195.975 69.6689V62.3689L193.582 62.7022V82.6689H195.975V72.0022C197.482 71.2355 199.613 70.5355 200.629 70.5355C201.514 70.5355 201.973 70.9022 201.973 71.8355V82.6689H204.366V71.7689ZM211.217 82.6355V62.3355L208.824 62.6689V82.6355H211.217ZM217.445 77.7022V76.5355H225.738V73.5689C225.738 70.6355 224.623 68.2022 220.493 68.2022C216.363 68.2022 215.052 70.5689 215.052 73.5022V77.7355C215.052 80.9355 216.461 82.9355 220.559 82.9355C222.296 82.9355 224.164 82.6355 225.475 82.1355L225.18 80.1689C223.64 80.5689 222.165 80.8355 220.788 80.8355C218.067 80.8355 217.445 79.9355 217.445 77.7022ZM217.445 73.3022C217.445 71.3022 218.231 70.2355 220.493 70.2355C222.755 70.2355 223.41 71.3689 223.41 73.3022V74.4689H217.445V73.3022Z" fill="#6F7072"/>
<path d="M67.5478 55.7685C67.3183 53.1685 66.2038 50.8685 64.3682 49.3685C62.7293 48.0018 60.6314 47.3352 58.5992 47.6018C56.108 47.8685 54.0757 49.8018 52.7973 51.3685C51.3551 53.1018 50.3717 55.0018 49.8473 56.3685C48.5689 55.2352 47.7494 53.9018 47.3561 52.2685C47.0283 50.8685 46.6677 48.1018 46.4055 46.1018C46.2088 44.7685 46.1105 43.7018 46.0121 43.3352C45.7499 42.1018 44.9304 40.0018 44.406 38.9018C45.5532 38.6685 46.4383 38.3685 47.2905 37.5352C48.1428 36.6685 49.5195 35.3352 49.5522 35.3352L50.3717 34.5352L49.2245 34.4352C48.995 34.4018 43.1604 33.9685 42.177 34.0018C41.4887 34.0352 40.6364 34.4018 39.9481 35.0685C39.3908 35.5685 38.6697 36.4352 38.1453 37.8352C37.6208 37.9352 32.8679 38.8685 32.8679 38.8685V39.9018L33.2612 40.0018C34.7363 40.3352 36.6047 41.1352 37.7191 41.9685L37.6536 42.0018C36.703 42.6352 35.4246 43.5018 34.3429 44.5018C32.9662 45.7685 32.3106 46.9018 32.409 47.9018C32.4745 48.6018 32.7696 49.1352 33.2612 49.5018C33.6546 49.7685 34.1463 49.9018 34.7035 49.9018C34.0479 51.0685 33.6874 51.9685 33.4251 52.8352C33.0973 54.0352 32.9662 55.2352 33.1301 56.7352C33.3268 59.0352 34.474 61.3352 35.7852 63.3352H29V79.3018C29 80.7352 29.295 82.1018 29.9178 83.3018C30.475 84.4352 31.2617 85.4018 32.2451 86.2352C34.0151 87.7018 36.3752 88.5685 38.5714 88.5685C40.7676 88.5685 43.1276 87.7018 44.8977 86.2352C45.881 85.4352 46.6677 84.4352 47.225 83.3018C47.7822 82.2018 48.0772 81.0018 48.1428 79.7352C48.2739 77.6018 48.995 74.4352 50.1095 71.9685C51.3551 69.1685 53.0268 67.7018 55.1574 67.5018C56.3047 67.4018 57.4519 67.5685 58.4353 68.0352C59.2547 68.4018 60.0414 68.9685 60.6642 69.6685C61.8115 70.9018 62.3687 72.3018 62.4343 72.6018V72.5685L62.8276 73.8685L63.3849 72.7352C64.2699 70.8685 65.5155 67.9352 66.4333 64.5018C67.4494 61.2352 67.7772 58.2685 67.5478 55.7685ZM36.5719 64.3018L36.8013 64.6018C37.5225 65.5685 38.2764 66.4018 38.8992 67.0685L40.3087 68.6018C42.5704 71.0018 44.3404 72.9018 45.1599 74.3018C46.2088 76.1018 46.9627 77.8685 47.225 79.2018C47.2577 79.3352 47.2905 79.6018 47.2905 79.7018C47.1594 82.5685 45.6844 84.3685 44.406 85.4352C42.7998 86.7685 40.6692 87.5685 38.7025 87.5685C36.703 87.5685 34.6052 86.8018 32.999 85.4352C31.6879 84.3352 30.1145 82.3685 30.1145 79.3018V64.3685L36.5719 64.3018ZM38.2764 42.8018L38.5058 42.6352C38.6697 42.8685 38.7681 43.0685 38.7681 43.3018C38.8336 44.1018 38.1125 44.9685 37.2275 46.1018C36.6374 46.8352 35.9819 47.7018 35.3263 48.7018C34.7035 48.8685 34.179 48.8018 33.8185 48.5352C33.589 48.3352 33.4251 48.0685 33.3923 47.7018C33.3268 47.0352 33.884 46.1685 34.9985 45.1352C36.0802 44.2685 37.3586 43.4352 38.2764 42.8018ZM65.6138 64.2685C64.8927 67.0018 63.9421 69.4685 63.0898 71.2352C62.7621 70.5685 62.2704 69.8018 61.582 69.0685C60.402 67.7352 58.3042 66.2352 55.1574 66.5018C53.8135 66.6352 52.6007 67.2018 51.5517 68.1352C50.6995 68.9352 49.9456 70.1018 49.29 71.5352C48.5361 73.2685 48.0116 75.2352 47.6183 77.0685C47.225 76.0352 46.7005 74.9352 46.0121 73.7685C45.1271 72.2685 43.3243 70.3352 41.0298 67.9018L39.6203 66.3685C38.1125 64.7352 36.8341 63.0685 35.9163 61.4685C34.9002 59.7018 34.3102 58.0352 34.179 56.6018C34.0479 55.2352 34.1463 54.1685 34.4413 53.0685C34.7035 52.0685 35.1952 51.0352 36.0802 49.5352C36.703 48.4352 37.3913 47.5685 38.0469 46.8018C39.0958 45.5018 39.8825 44.4685 39.7842 43.2685C39.6859 42.2685 38.8664 41.3352 37.2602 40.4685C36.5719 40.1018 35.7852 39.7685 35.0641 39.5018C36.6047 39.2018 38.6042 38.8018 38.6042 38.8018L38.8992 38.7352L38.9975 38.4685C39.7186 36.1018 41.3248 35.0352 42.2098 35.0018C42.8326 34.9685 45.8155 35.2018 47.9789 35.3352C47.52 35.7685 46.9627 36.3352 46.5366 36.7685C45.8483 37.4685 45.0616 37.6685 43.9143 37.9352L42.7998 38.2018L43.226 38.8352C43.4554 39.1685 44.6354 41.9685 44.996 43.5352C45.0943 43.8685 45.2255 44.9685 45.3566 46.2018C45.6188 48.3352 45.9794 51.0352 46.3399 52.5018C46.8316 54.6018 47.8805 56.2352 49.6834 57.6018L50.2734 58.0352L50.3717 57.6685C50.8634 56.0352 52.2073 53.6352 53.5185 52.0352C54.6657 50.6018 56.5341 48.8685 58.6647 48.6018C60.402 48.3685 62.2376 48.9685 63.6799 50.1685C65.286 51.5018 66.3022 53.5352 66.4988 55.8685C66.7611 58.2352 66.4333 61.0685 65.6138 64.2685ZM42.2754 39.6352C42.2098 38.8352 41.4887 38.2018 40.6692 38.3018C39.8825 38.3685 39.2597 39.1018 39.3581 39.9352C39.4236 40.7352 40.1448 41.3685 40.9642 41.2685C41.7509 41.1685 42.3409 40.4352 42.2754 39.6352ZM41.2592 39.7352C41.292 39.9685 41.0953 40.2018 40.8659 40.2352C40.6364 40.2685 40.407 40.0685 40.3742 39.8352C40.3414 39.6018 40.5381 39.3685 40.7676 39.3352C41.0298 39.2685 41.2265 39.4352 41.2592 39.7352ZM37.4241 81.1685V81.4018C37.4241 81.7352 37.3913 81.9018 36.7686 81.9018C36.4735 81.9018 36.0802 81.8685 35.7524 81.7685L35.6541 82.4685C35.9491 82.5685 36.3424 82.6352 36.8013 82.6352C37.9814 82.6352 38.2436 82.2018 38.2436 81.4685V81.0685C38.2436 80.4685 38.0141 80.0685 37.2275 80.0352C36.998 80.0352 36.8669 80.0018 36.6374 80.0018V78.9018H38.178V78.2018H35.7852V80.6685C36.113 80.6685 36.3752 80.6685 36.8341 80.7018C37.3586 80.7352 37.4241 80.8352 37.4241 81.1685ZM32.5401 82.5352H35.0968V81.8352H34.2118V78.2018H33.4907L32.409 78.5352L32.6057 79.2352L33.4251 79.0018V81.8352H32.5729V82.5352H32.5401ZM38.8992 81.2018V81.4685C38.8992 82.2352 39.2597 82.6018 40.3087 82.6018C41.3576 82.6018 41.7181 82.3018 41.7181 81.4685V81.2018C41.7181 80.8352 41.587 80.5685 41.0953 80.3352C41.5215 80.1018 41.6198 79.8352 41.6198 79.5018V79.2018C41.6198 78.5352 41.292 78.1352 40.3414 78.1352C39.3908 78.1352 39.0631 78.5352 39.0631 79.2018V79.5018C39.0631 79.8352 39.1942 80.1018 39.5875 80.3352C39.0303 80.5685 38.8992 80.8352 38.8992 81.2018ZM40.8331 79.5018C40.8331 79.7352 40.7676 79.8352 40.3087 80.0352C39.8498 79.8352 39.7842 79.7685 39.7842 79.5018V79.2352C39.7842 78.9685 39.8825 78.8352 40.3087 78.8352C40.7348 78.8352 40.8331 79.0018 40.8331 79.2352V79.5018ZM39.6859 81.2685C39.6859 81.0018 39.7514 80.8685 40.3087 80.6352C40.8659 80.8685 40.9314 80.9685 40.9314 81.2685V81.4685C40.9314 81.8018 40.7676 81.9018 40.3087 81.9018C39.8498 81.9018 39.6859 81.7685 39.6859 81.4685V81.2685ZM43.6849 78.2018L42.1443 80.8018V81.5352H44.0126V82.5018H44.7993V81.5352H45.3238V80.8352H44.7993V78.1685H43.6849V78.2018ZM42.9637 80.8685L44.0126 78.9685V80.8685H42.9637Z" fill="#E1001A"/>
</g>
<defs>
<clipPath id="clip0_2_576">
<rect width="197" height="55" fill="white" transform="translate(29 34)"/>
</clipPath>
</defs>
</svg>
